<svg xmlns="http://www.w3.org/2000/svg" viewBox="0 0 66.99 114.67"><defs><style>.cls-1{fill:#f9aa3c;}.cls-2{fill:#fff;}.cls-3{fill:#ffcb02;}.cls-4{fill:#88cebf;}.cls-5{fill:#ff7543;}</style></defs><g id="Layer_2" data-name="Layer 2"><g id="Objects"><polyline class="cls-1" points="16.17 46.97 16.17 46.97 34.64 113.63 48.98 44.9 14.51 47.73"/><polygon class="cls-2" points="20.95 65.28 34.64 114.67 44.94 65.28 20.95 65.28"/><path class="cls-3" d="M50.42,18a18,18,0,1,1-18-18A18,18,0,0,1,50.42,18Z"/><path class="cls-4" d="M35.91,38.68A18,18,0,1,1,18,20.72,18,18,0,0,1,35.91,38.68Z"/><path class="cls-5" d="M67,38.68A18,18,0,1,1,49,20.72,17.95,17.95,0,0,1,67,38.68Z"/><path class="cls-1" d="M21.6,30.46,5.93,1.48.15,4.61,15.92,33.78A6.22,6.22,0,0,1,21.6,30.46Z"/></g></g></svg>