<svg xmlns="http://www.w3.org/2000/svg" viewBox="0 0 88.05 74.79"><defs><style>.cls-1{fill:#fff;}.cls-2{fill:#ffcb02;}</style></defs><g id="Layer_2" data-name="Layer 2"><g id="Objects"><path class="cls-1" d="M77.11,28.11a31.78,31.78,0,0,0-11.26-6.26c-5.6-1.84-12.37-.38-16-5.79C45.89,10.27,43.29,3.28,36.12.79,31.62-.76,26.86.1,22.73,2.24c-6.27,1.15-11,6.66-12.44,13.29-1.08,5,.18,9.78.79,14.77.74,6-3.52,10.15-6.78,14.66-6.19,8.53-6,17.76,2.45,24.74,9,7.43,18.84,5.23,29.14,2.74,5.94-1.44,11.21,0,17.11.73A41.08,41.08,0,0,0,69.44,72C78.72,69.34,87.25,61.43,88,51.47,88.66,42.42,83.7,34,77.11,28.11Z"/><path class="cls-2" d="M53.09,41A17.14,17.14,0,1,1,36,23.89,17.14,17.14,0,0,1,53.09,41Z"/></g></g></svg>