<svg xmlns="http://www.w3.org/2000/svg" viewBox="0 0 113.42 89.23"><defs><style>.cls-1{fill:#a4561f;}.cls-2,.cls-3{fill:#9dab00;}.cls-3,.cls-5{fill-rule:evenodd;}.cls-4{fill:#d63a26;}.cls-5{fill:#aa331d;}.cls-6{fill:#a4be24;}.cls-7{fill:#629b21;}.cls-8{fill:#ff7543;}</style></defs><g id="Layer_2" data-name="Layer 2"><g id="Objects"><path class="cls-1" d="M20.46,19.11s.34-11.61-2-17.42c0,0,.94-3.55,3.82-.37.48,8.06.73,11.89-.51,18.57Z"/><path class="cls-2" d="M41.54,61.5c-1.93-11.78-9.18-18.29-10-25C30.07,23.89,30.76,16,21.28,15.94s-8.89,7.84-10.55,20.48C9.85,43.07,2.52,49.48.45,61.25c-1.94,11,2,24.91,20.39,25C39,86.39,43.34,72.55,41.54,61.5Z"/><path class="cls-3" d="M52.3,57c-2-2.43-8.1-7.63-8.85-13.94,0,0,3.76-2.1,7,2.2a15.48,15.48,0,0,1,5.26-6.14s3.86,4.79,3,9a9.65,9.65,0,0,1,7.41-.09s1.69,5.17-.46,8.05c0,0,4.26-1.11,7.47,1.59,0,0-2,5.34-5.07,5.31a9.79,9.79,0,0,1-.8,5.8A50.84,50.84,0,0,1,52.3,57Z"/><path class="cls-4" d="M58.69,53.7c-3.07-3.18-12.27-11.49-17.22-3.05S30,70.19,35.55,75.92,52.41,75.64,61,71,61.74,56.88,58.69,53.7Z"/><path class="cls-5" d="M39.43,66.76a1.15,1.15,0,0,0,1.1,2A1.15,1.15,0,0,0,39.43,66.76Z"/><path class="cls-5" d="M42.55,59.85a.76.76,0,0,0,.73,1.34A.76.76,0,0,0,42.55,59.85Z"/><path class="cls-5" d="M47.61,51.06a.79.79,0,0,0,.76,1.39A.79.79,0,0,0,47.61,51.06Z"/><path class="cls-5" d="M53.34,57.24a1,1,0,0,0,1,1.77A1,1,0,0,0,53.34,57.24Z"/><path class="cls-5" d="M47.9,62.94a1,1,0,0,0,.92,1.7A1,1,0,0,0,47.9,62.94Z"/><path class="cls-5" d="M47.7,69.76a.89.89,0,0,0,.85,1.56A.89.89,0,0,0,47.7,69.76Z"/><path class="cls-5" d="M55,65.64a1,1,0,0,0,.9,1.67A.95.95,0,0,0,55,65.64Z"/><path class="cls-6" d="M101.52,61a.46.46,0,0,0-.63-.15c-.91.65-1.54,1.64-2.45,2.32a15.29,15.29,0,0,1-2.82,1.67,4.21,4.21,0,0,0,.43-1.53c.06-.82-.37-2.74-1.66-2.19-.86.36-1.13,1.11-1.77,1.74a15.13,15.13,0,0,1-2.79,2,4.8,4.8,0,0,0-.34-2.74c-.34-.78-1.74-1.06-1.89,0-.45,3.09-4.31,7.17-19.54,10.4-2.68.57-5.28,1.47-7.9,2.24-2.4.7-5.2,1.21-7.27,2.66a1.91,1.91,0,0,0,1,3.5c2.54,0,5.07-1.17,7.48-1.91,2.94-.91,5.89-1.78,8.85-2.63,5.75-1.64,11.59-3,17.31-4.69a49.15,49.15,0,0,0,10.1-3.85C99.62,66.79,103.2,63.54,101.52,61Z"/><path class="cls-6" d="M95.76,81.9c-4-3.57-9.63-4.63-14.85-4.85-4.31-.18-9.67.06-13.72,2.11a6.64,6.64,0,0,0-2.32.28,1.19,1.19,0,0,0,0,2.18c1.79.64,6.08-.9,8-.76,10.45.74,13.51,8.07,16.56,5.72a1.4,1.4,0,0,0,.51-.77,10.08,10.08,0,0,0,5.49-1.26A1.57,1.57,0,0,0,95.76,81.9Z"/><path class="cls-7" d="M109.05,77.33a7,7,0,0,0-.68-.43,11.79,11.79,0,0,0,2.86-.85,1.38,1.38,0,0,0-.37-2.61c-.82-.15-1.58-.27-2.34-.34a9.15,9.15,0,0,0,4.6-3.29A1.65,1.65,0,0,0,112,67.22c-8.26-.94-15.71,3.31-23.66,4.63-3.92.66-8.62,1-12.88,2.12-3.63.18-8.48.26-11.6,2.12-1.2.71-1.36,3,.45,3.09,3.63.08,7.45-1.14,11.1-1.44a106,106,0,0,1,12.35-.16,78.11,78.11,0,0,1,10.75,1.51c3.12.56,6.82,1.35,10,.55A1.3,1.3,0,0,0,109.05,77.33Z"/><path class="cls-8" d="M73.71,76.46c-.93-8.51-6.21-13-23.17-7.67S4.59,79.22,5,83s30,4.39,47.75,6S74.65,85,73.71,76.46Z"/></g></g></svg>