<svg xmlns="http://www.w3.org/2000/svg" viewBox="0 0 102 36.15"><defs><style>.cls-1{fill:#f9aa3c;}.cls-2{fill:#a4561f;}.cls-3{fill:#d63a26;}.cls-4{fill:#fdddb1;}</style></defs><g id="Layer_2" data-name="Layer 2"><g id="Objects"><path class="cls-1" d="M95.66,23.76A12.39,12.39,0,0,1,83.28,36.15H19.53A12.39,12.39,0,0,1,7.14,23.76v-.23H95.66Z"/><path class="cls-2" d="M102,17.94a5.5,5.5,0,0,1-5.5,5.5H5.5A5.5,5.5,0,0,1,0,17.94H0a5.5,5.5,0,0,1,5.5-5.5h91a5.5,5.5,0,0,1,5.5,5.5Z"/><path class="cls-1" d="M91.81,16.28c-1.13,3.38-12-.47-14.66-.64-9.12-.58-18.23-.23-27.36,0-6.69.15-13,.08-19.64,1.18-5.93,1-14.07,3.16-19.3-.93A1.42,1.42,0,0,0,8.93,18c4.29,5,12.08,4,17.88,3.34,9.16-1.05,17.84-.81,27.06-.77C64.05,20.56,74,20.46,84,22.6c5.47,1.17,11.38,1.12,13.38-5.06C98.5,14,93,12.8,91.81,16.28Z"/><path class="cls-3" d="M96.88,15.06c-4.16-12-23.35-8.86-32.95-7.92a99.29,99.29,0,0,1-20.47.26c-10.68-1.11-21.3-2.78-31.83.26a4,4,0,0,0-2.87,2.7,1.59,1.59,0,0,0-.6.39c-3.18,3.41-.7,7.37,3.36,8.34,5.84,1.38,12.41-.24,18.25-.85,3.41-.35,6.64.32,10,.77,5.84.78,11.76,1.17,17.64,1.38,6.06.21,12-.55,18-.68,5.69-.13,11.38.59,17.07.66C95,20.4,97.7,17.41,96.88,15.06Z"/><path class="cls-1" d="M95.66,12.39A12.39,12.39,0,0,0,83.28,0H19.53A12.39,12.39,0,0,0,7.14,12.39v.22H95.66Z"/><path class="cls-4" d="M17.37,3.52c-1.15,0-1.08,1.78.06,1.78S18.52,3.52,17.37,3.52Z"/><path class="cls-4" d="M13.88,9.19c-.92,0-.87,1.43,0,1.43S14.8,9.19,13.88,9.19Z"/><path class="cls-4" d="M27.37,3.41c-1.29,0-1.21,2,.07,2S28.65,3.41,27.37,3.41Z"/><path class="cls-4" d="M38.37,6.88c-1.33,0-1.26,2.06.07,2.06S39.7,6.88,38.37,6.88Z"/><path class="cls-4" d="M46.38,3a1.56,1.56,0,0,0-1.55,0,1.44,1.44,0,0,0-.36,2,1.11,1.11,0,0,0,1.74.18,2.19,2.19,0,0,0,.26-.41,1,1,0,0,0,.44-.62A1,1,0,0,0,46.38,3Z"/><path class="cls-4" d="M52.35,7.31c-2.06,0-1.94,3.19.11,3.19S54.4,7.31,52.35,7.31Z"/><path class="cls-4" d="M59.86,2.61c-1.68,0-1.59,2.6.09,2.6S61.53,2.61,59.86,2.61Z"/><path class="cls-4" d="M67.35,7.93c-1.91,0-1.8,3,.11,3S69.25,7.93,67.35,7.93Z"/><path class="cls-4" d="M74.88,2.09c-1.06,0-1,1.64.05,1.64S75.93,2.09,74.88,2.09Z"/><path class="cls-4" d="M84.86,4.06c-1.74,0-1.64,2.69.09,2.69S86.59,4.06,84.86,4.06Z"/></g></g></svg>