<svg xmlns="http://www.w3.org/2000/svg" viewBox="0 0 42.68 75"><defs><style>.cls-1{fill:#fff;}.cls-2{fill:#6b1d13;}.cls-3{fill:#d63a26;}</style></defs><g id="Layer_2" data-name="Layer 2"><g id="Objects"><polygon class="cls-1" points="38.52 75 4.16 75 0 0 42.68 0 38.52 75"/><polygon class="cls-2" points="3.71 10.93 7.12 72.34 35.56 72.34 38.98 10.93 3.71 10.93"/><path class="cls-1" d="M15.16,19.93l-.28-.1a1.16,1.16,0,0,0-1.31.61,1.27,1.27,0,0,0,0,1.17,1.17,1.17,0,0,0,1.35.52l.27-.1A1.09,1.09,0,0,0,15.16,19.93Z"/><path class="cls-1" d="M23.46,19l-.24-.06a1,1,0,1,0,.07,2l.24-.06A1,1,0,0,0,23.46,19Z"/><path class="cls-1" d="M21.82,30c-1.43,0-1.34,2.21.08,2.21S23.25,30,21.82,30Z"/><path class="cls-1" d="M11.09,35.88c-.48,0-.45.75,0,.75S11.57,35.88,11.09,35.88Z"/><path class="cls-1" d="M15.93,52.79c-1,0-1,1.63.06,1.63S17,52.79,15.93,52.79Z"/><path class="cls-1" d="M22.51,41.1c-1.81,0-1.71,2.8.09,2.8S24.31,41.1,22.51,41.1Z"/><path class="cls-1" d="M13.86,30.05a.65.65,0,0,0,0,1.3A.65.65,0,0,0,13.86,30.05Z"/><path class="cls-1" d="M31.89,23.93c-1.13,0-1.07,1.75.07,1.75S33,23.93,31.89,23.93Z"/><path class="cls-1" d="M35.37,15.41c-.93,0-.87,1.44.05,1.44S36.29,15.41,35.37,15.41Z"/><path class="cls-1" d="M8,14.5c-.31,0-.3.49,0,.49S8.29,14.5,8,14.5Z"/><path class="cls-1" d="M22.54,13.89c-.65,0-.62,1,0,1S23.19,13.89,22.54,13.89Z"/><path class="cls-1" d="M13.07,16.3A.6.6,0,0,0,12,16.16h0a.69.69,0,0,0,0,1.32.87.87,0,0,0,1.08-1.19Z"/><path class="cls-1" d="M26.34,51.36c-1.11,0-1.05,1.72.06,1.72S27.45,51.36,26.34,51.36Z"/><path class="cls-1" d="M21.83,63.06c-1.24,0-1.17,1.92.06,1.92S23.06,63.06,21.83,63.06Z"/><path class="cls-1" d="M13.86,62.24c-.95,0-.9,1.47.05,1.47S14.8,62.24,13.86,62.24Z"/><path class="cls-1" d="M29.46,67.24c-1.22,0-1.15,1.88.07,1.88S30.68,67.24,29.46,67.24Z"/><path class="cls-1" d="M31.88,41c-1.44,0-1.36,2.25.08,2.25S33.33,41,31.88,41Z"/><path class="cls-1" d="M12.8,41.38c-1.45,0-1.37,2.24.08,2.24S14.25,41.38,12.8,41.38Z"/><path class="cls-3" d="M21.82,52.2c-1.36,0-1.28,2.12.08,2.12S23.19,52.2,21.82,52.2Z"/><path class="cls-3" d="M32.25,58.08c-.95,0-.9,1.46,0,1.46S33.19,58.08,32.25,58.08Z"/><path class="cls-3" d="M20.73,47.74a1.35,1.35,0,0,0,.17.66c.25.34.85.52,1.14.12a1.26,1.26,0,0,0,.24-.64C22.4,46.7,20.62,46.66,20.73,47.74Z"/><path class="cls-3" d="M31.89,35.51c-1.41,0-1.33,2.18.07,2.18S33.29,35.51,31.89,35.51Z"/><path class="cls-3" d="M17.67,34.73c-1.07,0-1,1.66.06,1.66S18.74,34.73,17.67,34.73Z"/><path class="cls-3" d="M27,21.47c-1.62,0-1.52,2.51.09,2.51S28.64,21.47,27,21.47Z"/><path class="cls-3" d="M31.2,15.6a1.27,1.27,0,0,0-.74.18.83.83,0,0,0,.05,1.42,1.23,1.23,0,0,0,.75.15A.88.88,0,0,0,31.2,15.6Z"/><path class="cls-3" d="M14.37,14.75a.67.67,0,0,0-.43,1,2.67,2.67,0,0,0-.08.45c0,.49.51.74.92.66A1.06,1.06,0,1,0,14.37,14.75Z"/><path class="cls-3" d="M7.62,23.61c-.65,0-.62,1,0,1S8.27,23.61,7.62,23.61Z"/><path class="cls-3" d="M9.61,48.33l-.29.4c-.32.45.14,1.21.68.82l.39-.27C11.19,48.7,10.09,47.65,9.61,48.33Z"/><path class="cls-3" d="M11.42,67.5c-1.33,0-1.25,2,.07,2S12.74,67.5,11.42,67.5Z"/><path class="cls-3" d="M18.71,68.71c-1.12,0-1.05,1.72.06,1.72S19.82,68.71,18.71,68.71Z"/><path class="cls-3" d="M19.06,23.61c-1.1,0-1,1.69.05,1.69S20.14,23.61,19.06,23.61Z"/></g></g></svg>