<svg xmlns="http://www.w3.org/2000/svg" viewBox="0 0 90 61.34"><defs><style>.cls-1{fill:#f9aa3c;}.cls-2{fill:#d63a26;}.cls-3{fill:#a4be24;}.cls-4{fill:#fbcc8a;}.cls-5{fill:#fdddb1;}</style></defs><g id="Layer_2" data-name="Layer 2"><g id="Objects"><path class="cls-1" d="M88.75,28.11A29.42,29.42,0,0,0,59.37,0H33.22A29.42,29.42,0,0,0,3.84,28.11Z"/><rect class="cls-2" x="4" y="34.7" width="85" height="12" rx="5.68"/><rect class="cls-3" x="6" y="26.7" width="79" height="4" rx="1.5"/><rect class="cls-4" y="30.7" width="90" height="4" rx="1.7"/><rect class="cls-3" x="6" y="45.7" width="79" height="4" rx="1.5"/><path class="cls-1" d="M3.27,49.38a12.54,12.54,0,0,0,12.53,12h61a12.54,12.54,0,0,0,12.53-12Z"/><path class="cls-5" d="M27.09,8.35c-2.35,0-2.21,3.64.13,3.64S29.44,8.35,27.09,8.35Z"/><path class="cls-5" d="M16.35,15.39c-1.75,0-1.65,2.71.09,2.71S18.09,15.39,16.35,15.39Z"/><path class="cls-5" d="M33.1,20.45c-1.39,0-1.31,2.15.08,2.15S34.48,20.45,33.1,20.45Z"/><path class="cls-5" d="M42.65,9.89c-1.9,0-1.79,2.94.11,2.94S44.55,9.89,42.65,9.89Z"/><path class="cls-5" d="M53.85,20.49a1.63,1.63,0,0,0-1.91-.19l-.57.35a1.73,1.73,0,1,0,2.44,2.28C54.28,22.16,54.61,21.2,53.85,20.49Z"/><path class="cls-5" d="M63,10.85c-2.2,0-2.08,3.41.12,3.41S65.18,10.85,63,10.85Z"/><path class="cls-5" d="M75.55,15.41c-1.72,0-1.62,2.67.09,2.67S77.27,15.41,75.55,15.41Z"/></g></g></svg>