<svg xmlns="http://www.w3.org/2000/svg" viewBox="0 0 94.98 65.38"><defs><style>.cls-1{fill:#454c53;}.cls-2{fill:#fff;}.cls-3{fill:#ff7543;}</style></defs><g id="Layer_2" data-name="Layer 2"><g id="Objects"><path class="cls-1" d="M55.67,37.54A27.84,27.84,0,1,1,27.84,9.71,27.83,27.83,0,0,1,55.67,37.54Z"/><path class="cls-2" d="M51.26,37.54A23.43,23.43,0,1,1,27.84,14.12,23.43,23.43,0,0,1,51.26,37.54Z"/><path class="cls-3" d="M39.82,37.54a12,12,0,1,1-12-12A12,12,0,0,1,39.82,37.54Z"/><path class="cls-3" d="M59.54,44.52s-.3-17.75,13-27.14C72.58,17.38,69.29.69,76,0s1.35,15.35,1.35,15.35,9.91-9.84,13.63-3.92-9.16,8.12-11.72,8.31l1.83,26.15H61"/><rect class="cls-1" x="43.98" y="40.91" width="51" height="24"/></g></g></svg>