<svg xmlns="http://www.w3.org/2000/svg" viewBox="0 0 98.64 80.73"><defs><style>.cls-1{fill:none;stroke:#a4561f;stroke-miterlimit:10;stroke-width:5px;}.cls-2{fill:#ff7543;}.cls-3{fill:#a4561f;}</style></defs><g id="Layer_2" data-name="Layer 2"><g id="Objects"><path class="cls-1" d="M96.14,53.29A12.76,12.76,0,1,1,83.38,40.54,12.76,12.76,0,0,1,96.14,53.29Z"/><path class="cls-2" d="M0,37.53a42.19,42.19,0,0,0,84.32,0Z"/><path class="cls-3" d="M62.61,77.73a3,3,0,0,1-3,3h-36a3,3,0,0,1-3-3h0a3,3,0,0,1,3-3h36a3,3,0,0,1,3,3Z"/><path class="cls-3" d="M36.45,33.14A11.37,11.37,0,0,1,35.38,32a15.17,15.17,0,0,1-2.16-3.56c-.19-.4-.32-.84-.49-1.29s-.25-.94-.39-1.44-.15-1-.2-1.58,0-1.12,0-1.69.11-1.16.25-1.74A15.57,15.57,0,0,1,32.93,19c.25-.55.46-1.13.75-1.67l.94-1.58.79-1.37a2.85,2.85,0,0,0,.31-.68L36,13a20,20,0,0,0,.71-2.62,23.21,23.21,0,0,0,.41-2.5,21.23,21.23,0,0,0,.08-2.36c0-.37,0-.74-.06-1.09s-.08-.68-.1-1c-.08-.63-.18-1.2-.26-1.68-.17-.95-.3-1.52-.3-1.52L36.76,0l.36.26a9.65,9.65,0,0,1,.9.84l.57.67c.19.25.38.54.6.85A12.87,12.87,0,0,1,40.3,4.88c.15.44.3.91.42,1.4A15.59,15.59,0,0,1,41,7.85a11,11,0,0,1-.22,3.45,12.19,12.19,0,0,1-1.43,3.41l-.53.82a6.08,6.08,0,0,1-.52.75l-.53.64-.56.73-.92,1.18c-.28.4-.5.84-.76,1.26s-.38.88-.59,1.32-.27.9-.42,1.35-.14.92-.22,1.37,0,.91,0,1.34.05.88.11,1.3.13.82.23,1.2A16.16,16.16,0,0,0,36,31.6a11,11,0,0,0,.78,1.28Z"/><path class="cls-3" d="M50.84,33.14A10.77,10.77,0,0,1,49.78,32a15.14,15.14,0,0,1-2.17-3.56c-.19-.4-.32-.84-.49-1.29s-.25-.94-.38-1.44-.16-1-.21-1.58,0-1.12,0-1.69a15.58,15.58,0,0,1,.26-1.74A13.7,13.7,0,0,1,47.33,19c.24-.55.46-1.13.74-1.67l1-1.58.78-1.37a3.39,3.39,0,0,0,.32-.68l.24-.64a20,20,0,0,0,.7-2.62,21,21,0,0,0,.41-2.5,21.23,21.23,0,0,0,.08-2.36c0-.37,0-.74,0-1.09s-.09-.68-.11-1c-.08-.63-.17-1.2-.25-1.68C51,.81,50.83.24,50.83.24L51.15,0l.36.26a7.64,7.64,0,0,1,.9.84c.18.19.37.42.57.67s.38.54.6.85A13.59,13.59,0,0,1,54.7,4.88c.14.44.29.91.41,1.4a15.58,15.58,0,0,1,.25,1.57,11.3,11.3,0,0,1-.23,3.45,11.63,11.63,0,0,1-1.43,3.41l-.52.82a6.08,6.08,0,0,1-.53.75l-.52.64-.57.73-.91,1.18c-.29.4-.51.84-.76,1.26s-.38.88-.6,1.32a13.08,13.08,0,0,0-.41,1.35c-.11.46-.15.92-.22,1.37s0,.91,0,1.34.06.88.12,1.3.12.82.23,1.2a16.21,16.21,0,0,0,1.4,3.63,13,13,0,0,0,.78,1.28Z"/></g></g></svg>