<svg xmlns="http://www.w3.org/2000/svg" viewBox="0 0 82.19 81.53"><defs><style>.cls-1,.cls-3{fill:#fff;}.cls-1{stroke:#f9aa3c;stroke-linecap:round;stroke-linejoin:round;stroke-width:4.44px;}.cls-2{opacity:0.4;}.cls-4{fill:#f9aa3c;}.cls-5{fill:#ff750f;}.cls-6{fill:#ff5443;}</style></defs><g id="Layer_2" data-name="Layer 2"><g id="Objects"><path class="cls-1" d="M73,4.68a208.26,208.26,0,0,0-63.83,0C4.47,5.5,1.45,9.79,2.39,14c0,.12,0,.18.07.29a8,8,0,0,0,5.78,5.92L5.76,74.78a4.54,4.54,0,0,0,4.54,4.53s21.07-.65,30.8-.65,30.79.65,30.79.65a4.54,4.54,0,0,0,4.54-4.53L74,20.22a8,8,0,0,0,5.78-5.92c0-.11,0-.17.07-.29C80.74,9.79,77.72,5.5,73,4.68Z"/><g class="cls-2"><path class="cls-3" d="M25.21,14.32a3.08,3.08,0,1,1-3.08-3.08A3.08,3.08,0,0,1,25.21,14.32Z"/><path class="cls-3" d="M44,46.09A3.08,3.08,0,1,1,40.93,43,3.08,3.08,0,0,1,44,46.09Z"/><path class="cls-3" d="M64.11,33.77A3.08,3.08,0,1,1,61,30.69,3.08,3.08,0,0,1,64.11,33.77Z"/><path class="cls-3" d="M47.9,64.89a3.08,3.08,0,1,1-3.08-3.08A3.08,3.08,0,0,1,47.9,64.89Z"/><path class="cls-3" d="M42.07,26a1.79,1.79,0,1,1-1.79-1.78A1.79,1.79,0,0,1,42.07,26Z"/><path class="cls-3" d="M57.63,50.63a1.79,1.79,0,1,1-1.79-1.78A1.79,1.79,0,0,1,57.63,50.63Z"/><path class="cls-3" d="M64.76,63.59A1.79,1.79,0,1,1,63,61.81,1.79,1.79,0,0,1,64.76,63.59Z"/><path class="cls-3" d="M29.75,31.18A1.79,1.79,0,1,1,28,29.4,1.78,1.78,0,0,1,29.75,31.18Z"/><path class="cls-3" d="M16.14,66.19a1.79,1.79,0,1,1-1.79-1.79A1.79,1.79,0,0,1,16.14,66.19Z"/><path class="cls-3" d="M29.1,58.41a1.78,1.78,0,1,1-1.78-1.79A1.78,1.78,0,0,1,29.1,58.41Z"/><path class="cls-3" d="M25.86,48a1.79,1.79,0,1,1-1.78-1.78A1.79,1.79,0,0,1,25.86,48Z"/><path class="cls-3" d="M59.57,15a1.78,1.78,0,1,1-1.78-1.78A1.78,1.78,0,0,1,59.57,15Z"/></g><path class="cls-4" d="M65.27,45.67a46.22,46.22,0,0,1-.94-13.78C64.87,25,65.42,18,59.57,13,51,5.82,35,7.37,26.91,14.7l-.6.29a11.58,11.58,0,0,0-6.38,9.25c-.4,3.91,2.76,7.59,5,10.41,1.92,2.41,3.63,4.06,1.27,6.65-2.59,2.84-5.47,5.11-7.74,8.26-4.72,6.52-4.22,15.28,3.67,18.92,3.93,1.8,8.34,2.12,12.6,2.3s8.5.74,12.83,1.26c9.16,1.08,16.84-3.83,18.53-13.2C66.87,54.46,66.18,50,65.27,45.67Z"/><path class="cls-5" d="M61.44,36.52a25.65,25.65,0,0,0-3.93-3.1c-2-1.44-1.69-1.1-.6-3.23,3.14-6.16.48-15.35-7.43-15.44-3.89-.05-6.68,3.24-9.26,5.67a8.86,8.86,0,0,1-4.83,2.51,6.51,6.51,0,0,0-3.5-.73c-2.81.23-4.39,2.41-5.29,4.87s.26,5.38,1.29,7.72c-1.17.38-2.29.7-3.43,1.18a13.93,13.93,0,0,0-6.52,4.88C13.82,47,23.14,51.24,27.88,51A12.11,12.11,0,0,1,30.5,51c-.22,0,0,.18.18.65.23.7.35,1.47.52,2.18a18.49,18.49,0,0,0,3.76,8c4.87,5.58,12.64.42,16.37-3.67a46.29,46.29,0,0,1,3.23-3.34c1.26-1.12,3-1.61,4.52-2.37C61.82,51,64.56,48.47,65,45.28,65.49,41.79,63.73,39,61.44,36.52Z"/><path class="cls-6" d="M23.46,44.54c.2.11-.12-.2,0,0Z"/><polygon class="cls-6" points="23.47 44.54 23.46 44.54 23.46 44.53 23.47 44.54 23.47 44.54"/><path class="cls-6" d="M26.85,45.09a16.17,16.17,0,0,1-2.41-.15,3.32,3.32,0,0,1-.72-.24l-.25-.16a.23.23,0,0,0,.05.07l-.05-.07,0,0,0,0a.43.43,0,0,0,0-.07s0,0,.11-.16a8.06,8.06,0,0,1,1.73-1.91.52.52,0,0,0-.37-.88,6.3,6.3,0,0,0-3.68,1.25,3,3,0,0,0-1,3.06c.66,2.63,4.91,3.2,7.05,2.82S28.78,45.22,26.85,45.09Z"/><path class="cls-6" d="M42.87,53.62c-1,.6-2.26,1.72-3.44,1.05S37.54,52.14,37.25,51a.38.38,0,0,0-.75.09c-.16,2.23-.22,4.51,1.6,6.14,2.09,1.86,5,.62,6.73-1.12A1.61,1.61,0,0,0,42.87,53.62Z"/><path class="cls-6" d="M30.76,29.76c0-.29-.11.53,0,0Z"/><path class="cls-6" d="M37.35,28.63c-1-2.91-5.73-1.93-6.5.69a1.6,1.6,0,0,0-.05.21c0,.1,0,.17,0,.23s0,.17,0,.34a3.13,3.13,0,0,0,0,.53,3.27,3.27,0,0,0,.47,1.42,2.28,2.28,0,0,0,2.56,1,.41.41,0,0,0,.19-.68,4.18,4.18,0,0,1-.67-1.17.08.08,0,0,1,0,0v-.07c0-.05,0-.06,0-.06s0-.06,0-.11a1.57,1.57,0,0,1,.17-.21l.25-.22h0l.12-.07h.07a3.59,3.59,0,0,1,.35-.08s.23,0,.29,0h.15l.22,0a3,3,0,0,0,1.83-.21A1.33,1.33,0,0,0,37.35,28.63Z"/><path class="cls-6" d="M53.23,26.75c0-2.16-.61-5.16-2.85-6a1.13,1.13,0,0,0-.59-.07,3.44,3.44,0,0,0-4.13-.22c-1.41,1-2,3.06-2.13,4.72a.82.82,0,0,0,1.51.41,6.38,6.38,0,0,1,1.12-1.41,4.65,4.65,0,0,1,.59-.49c.21-.14.87-.29.37-.38.33.06.15-.14.27.17a4.5,4.5,0,0,1,.26,1.24c.09,1.05,0,2.29.11,3.42a2.87,2.87,0,0,0-.46,1.34,2.73,2.73,0,0,0,.21,2.43,2.92,2.92,0,0,0,1.12.94,5.56,5.56,0,0,0,1.26.59,2.16,2.16,0,0,0,2.65-1.58,4.46,4.46,0,0,0,.05-.63C53.3,30,53.24,27.91,53.23,26.75Z"/><path class="cls-6" d="M46.57,38.48a9.26,9.26,0,0,0-4.88-2.56,2,2,0,0,0-2.27,1.19,1.61,1.61,0,0,0-.56.63,2.23,2.23,0,0,0,.2,2.19,5.56,5.56,0,0,0,3.49,2,1.29,1.29,0,0,1-.07.52,1.94,1.94,0,0,0,2.83,2.17C47.63,43.16,48.51,40.71,46.57,38.48Z"/><path class="cls-6" d="M56.67,40.89c-1.17-.78-2.41.72-1.81,1.82.87,1.62-.45,2.9-.9,4.37-.37,1.2.91,2.69,2.18,2.19,1.84-.71,2.5-2.33,2.68-4.2A4.46,4.46,0,0,0,56.67,40.89Z"/><path class="cls-6" d="M34.87,38.52a1,1,0,0,0-.37-.17l-.06-.12a1,1,0,0,0-.24-.33,1.34,1.34,0,0,0-.88-.36,1.23,1.23,0,0,0-1.09.63A3,3,0,0,0,31.94,40a2.58,2.58,0,0,0,.41.91,2.7,2.7,0,0,0,.34.52,1.82,1.82,0,0,0,2.56,0,1.87,1.87,0,0,0,.53-1.26A2,2,0,0,0,34.87,38.52Z"/><path class="cls-6" d="M38.52,46.33c-2.41,0-2.43,3.73,0,3.73S40.91,46.33,38.52,46.33Z"/><path class="cls-6" d="M50.83,46.44c-2.68,0-2.7,4.16,0,4.16S53.51,46.44,50.83,46.44Z"/><path class="cls-6" d="M43.76,30.24a1.5,1.5,0,0,0-1.88,1.41,1.52,1.52,0,0,0,.44,1.07,1.57,1.57,0,0,0,.45.29,1.35,1.35,0,0,0,.91.36A1.41,1.41,0,0,0,45.07,32,1.73,1.73,0,0,0,43.76,30.24Z"/><path class="cls-6" d="M57,34.68a.88.88,0,0,0,0,1.75A.88.88,0,0,0,57,34.68Z"/><path class="cls-6" d="M46.34,58.51a1,1,0,0,0-1.57.21l-.26.36c-.53.74.53,1.79,1.27,1.26l.36-.26A1,1,0,0,0,46.34,58.51Z"/><path class="cls-6" d="M54,36.77h0a.91.91,0,0,0-.59.28v0a1,1,0,1,0,1.47,1.46l0,0a.87.87,0,0,0,.28-.57s0,0,0,0A.85.85,0,0,0,54,36.77Z"/><path class="cls-6" d="M32.67,48a.87.87,0,0,0,0,1.73A.87.87,0,0,0,32.67,48Z"/><path class="cls-6" d="M54.46,18.55A2.87,2.87,0,0,0,51,17.39c-.51.21-.27.92.14,1.06,1.62.56,2.38,2.82,3,4.24a.84.84,0,0,0,1.53-.2A4.71,4.71,0,0,0,54.46,18.55Z"/><path class="cls-6" d="M55.37,27a1.09,1.09,0,0,0-1,1.36l0,.15a1,1,0,0,0,2,0,.75.75,0,0,1,0-.16A1.09,1.09,0,0,0,55.37,27Z"/></g></g></svg>