<svg xmlns="http://www.w3.org/2000/svg" viewBox="0 0 59.33 122.57"><defs><style>.cls-1{fill:#ffcb02;}.cls-2{fill:#ffea9a;}.cls-3,.cls-5{fill:#fff;}.cls-4{fill:#ff7543;}.cls-5{opacity:0.3;}</style></defs><g id="Layer_2" data-name="Layer 2"><g id="Objects"><circle class="cls-1" cx="18.61" cy="18.61" r="18.61" transform="matrix(0.16, -0.99, 0.99, 0.16, -2.73, 34.01)"/><circle class="cls-2" cx="18.61" cy="18.61" r="15.35" transform="translate(-2.73 34.01) rotate(-80.83)"/><path class="cls-1" d="M18.67,19c-5.86,7.68-8.29,13.09-.29,12.9C30.6,31.64,18.67,19,18.67,19Z"/><path class="cls-1" d="M18.46,17.57c.5-9.64-.54-15.48-7-10.81C1.49,13.88,18.46,17.57,18.46,17.57Z"/><path class="cls-1" d="M18,18.37C9,15.05,3.08,14.32,5.62,21.91,9.5,33.5,18,18.37,18,18.37Z"/><path class="cls-1" d="M19.48,18.6c5.6,7.86,10.06,11.78,12.24,4.08C35.06,10.93,19.48,18.6,19.48,18.6Z"/><path class="cls-1" d="M19.31,17.71c9.17-3,14.23-6.13,7.52-10.5C16.59.56,19.31,17.71,19.31,17.71Z"/><path class="cls-3" d="M57.51,50.86c-4.15-20.6-1.65-34.76-1.65-34.76H17.61S20.1,30.26,16,50.86c-3.68,18.26-4,36.61,20.78,36.61S61.19,69.12,57.51,50.86Z"/><path class="cls-4" d="M52.22,34.63h-31A124.21,124.21,0,0,1,19,51.69c-1.9,9.4-3.41,21,1.78,27.34,3.06,3.74,8.28,5.55,16,5.55s12.9-1.81,16-5.55c5.19-6.34,3.68-17.94,1.78-27.34A124.21,124.21,0,0,1,52.22,34.63Z"/><path class="cls-3" d="M38.79,117.15V86.1h-4v31.05s-38.67,5.42,2,5.42S38.79,117.15,38.79,117.15Z"/><rect class="cls-5" x="22.79" y="55.1" width="20" height="20" rx="5.17"/><rect class="cls-5" x="32.79" y="50.1" width="20" height="20" rx="5.17"/><path class="cls-3" d="M26.31,49.28c-1.33,0-1.26,2.06.07,2.06S27.63,49.28,26.31,49.28Z"/><path class="cls-3" d="M33.56,49.38c-.75,0-.71,1.17,0,1.17S34.31,49.38,33.56,49.38Z"/><path class="cls-3" d="M29.08,41.65c-1,0-.9,1.47.05,1.47S30,41.65,29.08,41.65Z"/><path class="cls-3" d="M37.34,41.16c-1.14,0-1.08,1.76.06,1.76S38.48,41.16,37.34,41.16Z"/><path class="cls-3" d="M39.07,47.07c-1.07,0-1,1.65,0,1.65S40.13,47.07,39.07,47.07Z"/><path class="cls-3" d="M45.62,42.12c-.78,0-.74,1.21,0,1.21S46.4,42.12,45.62,42.12Z"/><path class="cls-3" d="M48,62.48c-1.19,0-1.12,1.84.07,1.84S49.21,62.48,48,62.48Z"/><path class="cls-3" d="M32.17,64.62c-1.09,0-1,1.7.06,1.7S33.26,64.62,32.17,64.62Z"/><path class="cls-3" d="M45.27,55.36c-1.05,0-1,1.62.06,1.62S46.31,55.36,45.27,55.36Z"/><path class="cls-3" d="M24.94,60.56c-1,0-.94,1.55,0,1.55S25.94,60.56,24.94,60.56Z"/><path class="cls-3" d="M21.16,68.1a.47.47,0,0,0,0,.94A.47.47,0,0,0,21.16,68.1Z"/><path class="cls-3" d="M30.11,71.27c-1,0-.92,1.5.05,1.5S31.08,71.27,30.11,71.27Z"/><path class="cls-3" d="M33.54,78.18c-1.39,0-1.31,2.15.08,2.15S34.93,78.18,33.54,78.18Z"/><path class="cls-3" d="M41.48,72.88c-1.12,0-1,1.72.06,1.72S42.58,72.88,41.48,72.88Z"/><path class="cls-3" d="M44.36,78.43c-.12-.28-.55-.49-.78-.18-.08.11-.16.14-.25.24s-.35.33-.13.16a.71.71,0,1,0,1,.93A1.16,1.16,0,0,0,44.36,78.43Z"/><path class="cls-3" d="M49.06,72.31c-1,0-.9,1.48,0,1.48S50,72.31,49.06,72.31Z"/><path class="cls-3" d="M48.37,48.38c-1.16,0-1.1,1.79.06,1.79S49.52,48.38,48.37,48.38Z"/><path class="cls-3" d="M21.14,57.19c-1.35,0-1.27,2.09.07,2.09S22.48,57.19,21.14,57.19Z"/></g></g></svg>