<svg xmlns="http://www.w3.org/2000/svg" viewBox="0 0 123.6 61.7"><defs><style>.cls-1{fill:#88cebf;}.cls-2{fill:#3d9b8f;}.cls-3{fill:#454c53;}.cls-4{fill:#fff;}</style></defs><g id="Layer_2" data-name="Layer 2"><g id="Objects"><path class="cls-1" d="M36.64,17.23s5-10.54,20.22-12.83C64.73,3.21,75.92,7.9,82,1.54L79.71,17.23Z"/><path class="cls-1" d="M43.38,47.45S46,55.21,56.19,57.93c5.27,1.41,13.28-1,16.94,3.77l-.35-11Z"/><path class="cls-1" d="M88.85,31.19s3.8-19.29,17.56-19.32S120.24,0,120.24,0s10.67,19.62-6,31.19c0,0,11.85,17.6,2.23,30.23,0,0-5.21-9.12-8.89-11.06C95.13,43.79,91.22,38,88.85,31.19Z"/><path class="cls-2" d="M7.26,33.89S21,13.33,55.79,13.33s45,17.86,45,17.86S91.29,54.79,54.35,54C25.57,53.34,7.24,34.45,7.24,34.45"/><path class="cls-3" d="M55.79,13.33A72.71,72.71,0,0,0,30.7,17.51a18.76,18.76,0,0,1,6.58,6.55,18.23,18.23,0,0,1,2.53,9.28c.19,3.72-1,6-2.49,9.23a18.27,18.27,0,0,1-2.93,3.75,18.59,18.59,0,0,1-3.69,2.85A68.81,68.81,0,0,0,54.35,54c36.94.82,46.42-22.78,46.42-22.78S90.55,13.33,55.79,13.33Z"/><path class="cls-1" d="M14.65,33.89S6.5,25.19,2.06,28.15s.74,7,.74,7-5.77,3.11-.74,7C8.35,47.06,14.65,33.89,14.65,33.89Z"/><path class="cls-4" d="M37.44,31.06a6.71,6.71,0,1,1-6.7-6.71A6.71,6.71,0,0,1,37.44,31.06Z"/><path class="cls-3" d="M33.89,31.06a3.15,3.15,0,1,1-3.15-3.15A3.15,3.15,0,0,1,33.89,31.06Z"/><path class="cls-1" d="M48.34,38.74S58,44.29,64.26,44.36a29.93,29.93,0,0,1,9.63,1.37l-5.5-5.53Z"/></g></g></svg>