<svg xmlns="http://www.w3.org/2000/svg" viewBox="0 0 84 84"><defs><style>.cls-1{fill:#f9aa3c;}.cls-2{fill:#ff7543;}.cls-3{fill:#ffe8c5;}.cls-4{fill:#88cebf;}.cls-5{fill:#fff;}.cls-6{fill:#d63a26;}</style></defs><g id="Layer_2" data-name="Layer 2"><g id="Objects"><circle class="cls-1" cx="42" cy="42" r="42"/><path class="cls-2" d="M82,42c0,4.1-4.55,7.42-5.75,11.12s.44,9.19-1.88,12.38-8,3.26-11.2,5.6-5,7.68-8.79,8.92S46.1,78,42,78s-8.66,3.25-12.35,2-5.6-6.6-8.79-8.92S12,68.71,9.66,65.49,9,57,7.78,53.12,2,46.1,2,42s4.55-7.42,5.75-11.12S7.34,21.69,9.66,18.5s8-3.26,11.2-5.6,5-7.68,8.79-8.92S37.9,6,42,6,50.66,2.78,54.35,4s5.6,6.6,8.79,8.92,8.85,2.38,11.2,5.6.63,8.55,1.88,12.38S82,37.9,82,42Z"/><path class="cls-3" d="M53.76,42A11.76,11.76,0,1,1,42,30.24,11.75,11.75,0,0,1,53.76,42Z"/><path class="cls-4" d="M34.11,60.55a1.1,1.1,0,0,0-.14-.11,1.26,1.26,0,0,0-1.95-.1,1.72,1.72,0,0,0-.36.29,1.73,1.73,0,1,0,2.45-.08Z"/><path class="cls-4" d="M51.67,65.21c-2.56,0-2.42,4,.14,4S54.24,65.21,51.67,65.21Z"/><path class="cls-4" d="M68.48,43.75c-2.52,0-2.38,3.89.13,3.89S71,43.75,68.48,43.75Z"/><path class="cls-4" d="M51.69,13.88c-2,0-1.92,3.15.11,3.15S53.72,13.88,51.69,13.88Z"/><path class="cls-4" d="M22.12,27.34c-2,0-1.89,3.11.11,3.11S24.13,27.34,22.12,27.34Z"/><path class="cls-4" d="M18.08,45.17c-2.42,0-2.28,3.74.13,3.74S20.49,45.17,18.08,45.17Z"/><path class="cls-4" d="M63.14,30.09c-1.07,0-1,1.65.06,1.65S64.2,30.09,63.14,30.09Z"/><path class="cls-5" d="M27.49,18.43c-2.24,0-2.11,3.46.12,3.46S29.72,18.43,27.49,18.43Z"/><path class="cls-5" d="M11.39,38c-1.27,0-1.2,2,.07,2S12.66,38,11.39,38Z"/><path class="cls-5" d="M20.77,58.77c-2.21,0-2.08,3.42.12,3.42S23,58.77,20.77,58.77Z"/><path class="cls-5" d="M61.75,56.22c-2.9,0-2.74,4.49.15,4.49S64.64,56.22,61.75,56.22Z"/><path class="cls-5" d="M60.42,23.05c-2.34,0-2.21,3.62.12,3.62S62.75,23.05,60.42,23.05Z"/><path class="cls-5" d="M36.22,69.25c-2.57,0-2.42,4,.14,4S38.78,69.25,36.22,69.25Z"/><path class="cls-5" d="M39.58,18.92c-2.47,0-2.33,3.82.13,3.82S42,18.92,39.58,18.92Z"/><path class="cls-6" d="M17.43,23c-1.53,0-1.44,2.36.08,2.36S19,23,17.43,23Z"/><path class="cls-6" d="M23.45,39.58c-2.7,0-2.54,4.17.14,4.17S26.13,39.58,23.45,39.58Z"/><path class="cls-6" d="M25.81,68.71c-2.39,0-2.26,3.7.13,3.7S28.19,68.71,25.81,68.71Z"/><path class="cls-6" d="M47.29,59.08a1.62,1.62,0,0,0-1.65-1.54,1.48,1.48,0,0,0-1.29.81,1.62,1.62,0,0,0,.32,3,2.18,2.18,0,0,0,2.13-.51A2.27,2.27,0,0,0,47.29,59.08Z"/><path class="cls-6" d="M63.09,40.17c-2.8,0-2.63,4.33.15,4.33S65.88,40.17,63.09,40.17Z"/><path class="cls-6" d="M35.56,11.77c-2.16,0-2,3.34.11,3.34S37.71,11.77,35.56,11.77Z"/><path class="cls-6" d="M50.35,22.76c-1.86,0-1.75,2.87.1,2.87S52.2,22.76,50.35,22.76Z"/><path class="cls-6" d="M70.51,30.72c-2,0-1.87,3.07.1,3.07S72.49,30.72,70.51,30.72Z"/></g></g></svg>