<svg xmlns="http://www.w3.org/2000/svg" viewBox="0 0 95.55 85.63"><defs><style>.cls-1{fill:#629b21;}.cls-2{fill:#a4be24;}.cls-3{fill:#d63a26;}.cls-4{fill:#fff;}.cls-5{fill:#454c53;}.cls-6{fill:#f9aa3c;}</style></defs><g id="Layer_2" data-name="Layer 2"><g id="Objects"><path class="cls-1" d="M91.72,29.39a21.2,21.2,0,0,0,1.45-4.66c.42-2.23-2.16-4.6-4.26-3.05l-.48.36a13.25,13.25,0,0,0,.41-7.87,1.51,1.51,0,0,0-2.23-.85,47.13,47.13,0,0,0-5.47,5.38C82.3,16,83.93,12.89,83.61,10c-.14-1.3-1.43-2.63-2.85-2-3.24,1.33-5.14,4.71-7,7.61,0-.15,0-.29.07-.43.42-2.34-2.59-4.28-4.29-2.27a23.66,23.66,0,0,0-3.9,6.61c-.17-.52-.35-1-.56-1.56-.68-1.67-3.36-2.44-4.24-.4A36,36,0,0,0,58.25,27.9a5.89,5.89,0,0,0-.32-.54A2.42,2.42,0,0,0,54.16,27c-3.08,2.84-1.75,8.49-.35,11.83a26.22,26.22,0,0,0,5.06,8.1c-.45.33-.89.67-1.31,1-2.18,1.94-.77,6,2,6.44a20.41,20.41,0,0,0,8.73-.61,4.82,4.82,0,0,0,.73.43,4.11,4.11,0,0,0,5.86-2.71,1,1,0,0,0,0-.17c2.23-1,4.37-2.17,6.38-3.24,6-3.21,14-9,14.13-16.58A2.53,2.53,0,0,0,91.72,29.39Z"/><path class="cls-2" d="M64.09,16.51c.84-2.12-.86-5.48-3.56-4.32-.76.33-1.51.67-2.26,1a20.11,20.11,0,0,0,3.83-6.9C62.84,3.78,60.19,2,58,2.46a17.56,17.56,0,0,0-6.43,3c.15-.77.29-1.54.38-2.32C52.18.78,49.39-1.19,47.52.85S43.65,5.17,41.7,7.71c-.6-1.78-1.81-3-4.18-2.54-4,.84-5.36,5.74-6.09,9.38l-.13-.08c-3.2-1.91-6.68,1.57-5.83,4.81s1.64,6.57,3.94,9h-.18c-3.92-.08-5.49,4.34-4,7.37,5.3,10.44,25.86,9.09,33.23,1.92,1.66-1.62.49-4.17-1.47-4.76-.3-.09-.61-.14-.91-.21a24.39,24.39,0,0,0,6-4.92c1-1.25.65-3.52-1.18-3.81a16.79,16.79,0,0,0-2.65-.19A17.14,17.14,0,0,0,64.09,16.51Z"/><circle class="cls-3" cx="33.9" cy="33.1" r="8.5"/><circle class="cls-3" cx="70.9" cy="36.1" r="8.5"/><path class="cls-1" d="M31.14,29.33c-.45-2.17-2.87-3.39-5-3.12a13.62,13.62,0,0,0-.41-4.61,3.52,3.52,0,0,0-5.91-1.38l-.14.17a17.39,17.39,0,0,0-3.92-6.34c-1.52-1.47-4.61-1.17-5.47.94A16.42,16.42,0,0,0,9.2,19.62a11.63,11.63,0,0,0-1.88-.86,5.44,5.44,0,0,0-3-.05,4.86,4.86,0,0,0-3.49,5,5.35,5.35,0,0,0,1,2.89,9.57,9.57,0,0,0,1,1.13c-3.12,1.1-4,6.27-.55,7.72a35.94,35.94,0,0,0,3.44,1.2,3.41,3.41,0,0,0,0,4.86c1.57,1.81,4.31,2.22,6.5,2.85s4,1,6,.45c-1.18,2.68-2,5.63-.23,8a4.26,4.26,0,0,0,5.68,1.35c3.31-1.67,4.65-8.2,6-11.49C31.27,38.26,32.13,34,31.14,29.33Z"/><path class="cls-4" d="M82,41.15a16.23,16.23,0,0,1-19.87,4.38A16.81,16.81,0,0,0,64.63,48,16.25,16.25,0,0,0,85,22.69a16.72,16.72,0,0,0-3-1.89A16.24,16.24,0,0,1,82,41.15Z"/><path class="cls-4" d="M56.81,40.3a15.62,15.62,0,0,1-2.06-19.46A15.58,15.58,0,0,0,52,45.05a15.64,15.64,0,0,0,22.11.06,15.94,15.94,0,0,0,2.12-2.64A15.64,15.64,0,0,1,56.81,40.3Z"/><path class="cls-4" d="M22.39,41.09A15.63,15.63,0,0,1,9,26.84,15.63,15.63,0,1,0,39.1,34.42,15.34,15.34,0,0,0,39.19,31,15.63,15.63,0,0,1,22.39,41.09Z"/><path class="cls-5" d="M.24,37.85a47.67,47.67,0,0,0,95.31,0Z"/><rect class="cls-6" x="26.88" y="79.63" width="42" height="6" rx="2.75"/></g></g></svg>