<svg xmlns="http://www.w3.org/2000/svg" viewBox="0 0 84.52 95.63"><defs><style>.cls-1{fill:#529b83;}.cls-2{fill:#88cebf;}.cls-3{fill:#b8e2d9;}.cls-4{fill:#fff;}.cls-5{fill:#fff6e8;}.cls-6{fill:#cfebe5;}</style></defs><g id="Layer_2" data-name="Layer 2"><g id="Objects"><path class="cls-1" d="M30.4,6.19V5.46A5.46,5.46,0,0,0,24.94,0H15.11A5.45,5.45,0,0,0,9.65,5.46v.73Z"/><rect class="cls-2" x="9" y="5.16" width="21" height="4"/><rect class="cls-3" x="9" y="9.16" width="21" height="8"/><path class="cls-2" d="M38.62,33.93V22.28a5.82,5.82,0,0,0-5.82-5.82H8.34a5.82,5.82,0,0,0-5.82,5.82V33.93Z"/><path class="cls-2" d="M1.56,84.69c.77,6.19,5.19,10.94,10.54,10.94H29c5.35,0,9.77-4.75,10.54-10.94Z"/><path class="cls-3" d="M41,34.21v-.36c0-2.1-.5-4.69-2.25-4.69H3.85C2.1,29.16,0,31.75,0,33.85v.36a3.53,3.53,0,0,0,3.48,3.54c-1.75,0-3.48,2-3.48,4.08v.36c0,2.1,1.73,4.3,3.48,4.3A3.33,3.33,0,0,0,0,49.81v.35c0,2.11,1.73,4,3.48,4A3.63,3.63,0,0,0,0,57.78v.36a3.61,3.61,0,0,0,3.48,3.63c-1.75,0-3.48,1.88-3.48,4v.35a3.32,3.32,0,0,0,3.48,3.31C1.73,69.42,0,71.63,0,73.73v.36c0,2.11,1.73,4.06,3.48,4.06A3.54,3.54,0,0,0,0,81.71v.36c0,2.1,2.1,3.09,3.85,3.09h34.9c1.75,0,2.25-1,2.25-3.09v-.36c0-2.1-.27-3.56-2-3.56,1.75,0,2-2,2-4.06v-.36c0-2.1-.27-4.31-2-4.31,1.75,0,2-1.2,2-3.31v-.35c0-2.11-.27-4-2-4,1.75,0,2-1.53,2-3.63v-.36c0-2.1-.27-3.65-2-3.65,1.75,0,2-1.86,2-4v-.35c0-2.11-.27-3.32-2-3.32,1.75,0,2-2.2,2-4.3v-.36c0-2.1-.27-4.08-2-4.08C40.73,37.75,41,36.31,41,34.21Z"/><path class="cls-4" d="M29.23,62.94a8.67,8.67,0,0,1-17.33,0c0-4.79,8.67-16.45,8.67-16.45S29.23,58.15,29.23,62.94Z"/><polygon class="cls-4" points="80.52 95.16 52.52 95.16 47.52 23.16 84.52 23.16 80.52 95.16"/><polygon class="cls-5" points="55.32 92.16 50.74 26.16 81.35 26.16 77.69 92.16 55.32 92.16"/><polygon class="cls-6" points="52.09 46.13 55.32 92.63 77.69 92.63 80.27 46.13 52.09 46.13"/></g></g></svg>